<svg width="20" height="22" viewBox="0 0 20 22" fill="none" xmlns="http://www.w3.org/2000/svg">
<path fill-rule="evenodd" clip-rule="evenodd" d="M11.3982 0.0827545C11.8054 0.259523 12.0473 0.683592 11.9923 1.12409L11.1328 8.00006H19C19.388 8.00006 19.741 8.22452 19.9056 8.5759C20.0702 8.92729 20.0166 9.34216 19.7682 9.64024L9.76822 21.6402C9.48403 21.9813 9.00902 22.0941 8.60181 21.9174C8.19459 21.7406 7.95266 21.3165 8.00772 20.876L8.86722 14.0001H1C0.611982 14.0001 0.25899 13.7756 0.0944104 13.4242C-0.0701694 13.0728 -0.0166243 12.658 0.231779 12.3599L10.2318 0.359872C10.516 0.0188374 10.991 -0.0940143 11.3982 0.0827545ZM3.13504 12.0001H10C10.2868 12.0001 10.5599 12.1232 10.7497 12.3383C10.9395 12.5533 11.0279 12.8395 10.9923 13.1241L10.4153 17.7396L16.865 10.0001H10C9.71317 10.0001 9.44015 9.87689 9.25032 9.66186C9.0605 9.44683 8.97215 9.16064 9.00772 8.87602L9.58466 4.26051L3.13504 12.0001Z" fill="#0066FF"/>
</svg>
