<svg version="1.1" xmlns="http://www.w3.org/2000/svg" xmlns:xlink="http://www.w3.org/1999/xlink" width="512px" height="512px" viewBox="0,0,256,256"><g fill="#0066ff" fill-rule="nonzero" stroke="none" stroke-width="1" stroke-linecap="butt" stroke-linejoin="miter" stroke-miterlimit="10" stroke-dasharray="" stroke-dashoffset="0" font-family="none" font-weight="none" font-size="none" text-anchor="none" style="mix-blend-mode: normal"><g transform="scale(0.5,0.5)"><path d="M256,352c37.2,0 63.2,-17.5 78.4,-33.9c8.9,-9.7 24.1,-10.4 33.9,-1.4c9.7,9 10.3,24.2 1.3,33.9c-21.9,23.9 -59.9,49.4 -113.6,49.4c-53.7,0 -91.7,-25.5 -113.6,-49.4c-9,-9.7 -9.3,-24.9 1.3,-33.9c9.8,-9 25,-8.3 33.9,1.4c15.2,16.4 41.2,33.9 78.4,33.9zM208.4,208c0,17.7 -14.4,32 -32,32c-17.7,0 -32,-14.3 -32,-32c0,-17.7 14.3,-32 32,-32c17.6,0 32,14.3 32,32zM304.4,208c0,-17.7 14.3,-32 32,-32c17.6,0 32,14.3 32,32c0,17.7 -14.4,32 -32,32c-17.7,0 -32,-14.3 -32,-32zM512,256c0,141.4 -114.6,256 -256,256c-141.4,0 -256,-114.6 -256,-256c0,-141.4 114.6,-256 256,-256c141.4,0 256,114.6 256,256zM256,48c-114.9,0 -208,93.1 -208,208c0,114.9 93.1,208 208,208c114.9,0 208,-93.1 208,-208c0,-114.9 -93.1,-208 -208,-208z"></path></g></g></svg>