<svg version="1.1" xmlns="http://www.w3.org/2000/svg" xmlns:xlink="http://www.w3.org/1999/xlink" width="512px" height="512px" viewBox="0,0,256,256"><g fill="#0066ff" fill-rule="nonzero" stroke="none" stroke-width="1" stroke-linecap="butt" stroke-linejoin="miter" stroke-miterlimit="10" stroke-dasharray="" stroke-dashoffset="0" font-family="none" font-weight="none" font-size="none" text-anchor="none" style="mix-blend-mode: normal"><g transform="translate(0.22523,0) scale(0.5,0.5)"><path d="M256,32c-141.4,0 -255.9728,93.1 -255.9728,208c0,47.63 19.91,91.25 52.91,126.2c-14.88,39.5 -45.87,72.88 -46.37,73.25c-6.625,7 -8.375,17.25 -4.625,26c3.8758,8.75 12.4378,14.55 22.0578,14.55c61.5,0 109.1,-25.75 139.1,-46.25c28,9.05 60.2,14.25 92.9,14.25c141.4,0 255.1,-93.13 255.1,-208c0,-114.87 -113.7,-208 -255.1,-208zM256.1,400c-26.75,0 -53.12,-4.125 -78.38,-12.12l-22.75,-7.125l-19.5,13.75c-14.25,10.12 -33.88,21.38 -57.5,29c7.375,-12.12 14.37,-25.75 19.88,-40.25l10.62,-28l-20.62,-21.87c-18.03,-19.285 -39.78,-51.185 -39.78,-93.385c0,-88.25 93.25,-160 208,-160c114.75,0 208,71.75 208,160c0,88.25 -93.27,160 -207.97,160z"></path></g></g></svg>